<svg xmlns="http://www.w3.org/2000/svg" xmlns:xlink="http://www.w3.org/1999/xlink" width="48" height="48" viewBox="0 0 48 48" version="1.1">
  <g id="surface1">
    <path d="M 25.695312 25.199219 L 39.246094 11.648438 C 39.714844 11.179688 39.714844 10.421875 39.246094 9.953125 C 38.777344 9.484375 38.019531 9.484375 37.550781 9.953125 L 24 23.503906 L 10.449219 9.953125 C 9.980469 9.484375 9.222656 9.484375 8.753906 9.953125 C 8.285156 10.421875 8.285156 11.179688 8.753906 11.648438 L 22.304688 25.199219 L 8.753906 38.75 C 8.285156 39.21875 8.285156 39.980469 8.753906 40.445312 C 8.988281 40.683594 9.296875 40.796875 9.601562 40.796875 C 9.910156 40.796875 10.21875 40.679688 10.453125 40.445312 L 24.003906 26.898438 L 37.554688 40.445312 C 37.789062 40.683594 38.09375 40.796875 38.402344 40.796875 C 38.710938 40.796875 39.015625 40.679688 39.253906 40.445312 C 39.71875 39.980469 39.71875 39.21875 39.253906 38.75 L 25.703125 25.199219 Z M 25.695312 25.199219 " />
  </g>
</svg>