<?xml version="1.0" encoding="UTF-8"?>
<svg xmlns="http://www.w3.org/2000/svg" xmlns:xlink="http://www.w3.org/1999/xlink" width="48px" height="48px" viewBox="0 0 48 48" version="1.1" stroke-width="1">
  <g id="surface1">
    <path style=" stroke:none;fill-rule:nonzero;fill:rgb(0%,0%,0%);fill-opacity:1;" d="M 39 43.5 L 9 43.5 C 6.519531 43.5 4.5 41.480469 4.5 39 L 4.5 9 C 4.5 6.519531 6.519531 4.5 9 4.5 L 39 4.5 C 41.480469 4.5 43.5 6.519531 43.5 9 L 43.5 39 C 43.5 41.480469 41.480469 43.5 39 43.5 Z M 9 7.5 C 8.171875 7.5 7.5 8.171875 7.5 9 L 7.5 39 C 7.5 39.828125 8.171875 40.5 9 40.5 L 39 40.5 C 39.828125 40.5 40.5 39.828125 40.5 39 L 40.5 9 C 40.5 8.171875 39.828125 7.5 39 7.5 Z M 9 7.5 "/>
  </g>
</svg>
